<svg width="177" height="32" viewBox="0 0 177 32" fill="none" xmlns="http://www.w3.org/2000/svg">
<g filter="url(#filter0_d_84_115)">
<path d="M1.54325 27.8179C1.10232 27.8179 0.734881 27.7428 0.440929 27.5925C0.146976 27.4423 0 27.2544 0 27.029V4.78892C0 4.56351 0.146976 4.37568 0.440929 4.22541C0.734881 4.07514 1.10232 4 1.54325 4C1.98418 4 2.35162 4.07514 2.64557 4.22541C2.93953 4.37568 3.0865 4.56351 3.0865 4.78892V27.029C3.0865 27.2544 2.93953 27.4423 2.64557 27.5925C2.35162 27.7428 1.98418 27.8179 1.54325 27.8179Z" fill="black" fill-opacity="0.8" shape-rendering="crispEdges"/>
<path d="M11.2201 27.8179C10.1913 27.8179 9.6769 27.555 9.6769 27.029V4.82649C9.6769 4.30054 10.1913 4.03757 11.2201 4.03757C12.0285 4.03757 12.6409 4.21288 13.0574 4.56352L31.6499 19.1774L30.915 19.2149L49.5075 4.56352C49.9239 4.21288 50.5363 4.03757 51.3447 4.03757C52.3245 4.03757 52.8144 4.30054 52.8144 4.82649V27.029C52.8144 27.555 52.3 27.8179 51.2712 27.8179C50.2424 27.8179 49.7279 27.555 49.7279 27.029V6.40433L50.6098 6.5546L33.1196 20.3044C32.7032 20.655 32.0908 20.8303 31.2824 20.8303C30.474 20.8303 29.8616 20.655 29.4452 20.3044L11.955 6.5546L12.7634 6.74244V27.029C12.7634 27.555 12.249 27.8179 11.2201 27.8179Z" fill="black" fill-opacity="0.8" shape-rendering="crispEdges"/>
<path d="M60.9423 27.8179C59.9135 27.8179 59.3991 27.555 59.3991 27.029V4.82649C59.3991 4.30054 59.9135 4.03757 60.9423 4.03757C61.9712 4.03757 62.4856 4.30054 62.4856 4.82649V16.2659L85.3404 4.30054C86.0508 3.93739 86.7612 3.93739 87.4716 4.30054C88.2309 4.65117 88.2554 5.02685 87.5451 5.42757L70.7897 14.1809L90.4846 26.6533C91.146 27.0666 91.0725 27.4423 90.2641 27.7804C89.4802 28.106 88.7699 28.0684 88.133 27.6677L68.6586 15.3079L62.4856 18.5387V27.029C62.4856 27.555 61.9712 27.8179 60.9423 27.8179Z" fill="black" fill-opacity="0.8" shape-rendering="crispEdges"/>
<path d="M106.583 27.8179C101.365 27.8179 97.5685 27.2169 95.1924 26.0147C92.8408 24.8 91.665 22.859 91.665 20.1917V11.6638C91.665 8.97146 92.8408 7.0242 95.1924 5.82203C97.5685 4.60734 101.341 4.01252 106.51 4.03757H115.402C120.619 4.03757 124.404 4.64491 126.756 5.8596C129.132 7.06177 130.32 8.99651 130.32 11.6638V20.1917C130.32 22.859 129.132 24.8 126.756 26.0147C124.404 27.2169 120.619 27.8179 115.402 27.8179H106.583ZM106.583 26.2401H115.402C118.292 26.2401 120.595 26.046 122.31 25.6578C124.049 25.2571 125.298 24.6184 126.057 23.7418C126.841 22.8527 127.233 21.6694 127.233 20.1917V11.6638C127.233 10.1862 126.841 9.00903 126.057 8.13245C125.298 7.24335 124.049 6.60469 122.31 6.21649C120.595 5.81577 118.292 5.61541 115.402 5.61541H106.51C103.619 5.60289 101.316 5.79073 99.6017 6.17893C97.887 6.56713 96.6499 7.20578 95.8905 8.09488C95.1312 8.98398 94.7515 10.1736 94.7515 11.6638V20.1917C94.7515 21.6694 95.1312 22.8527 95.8905 23.7418C96.6744 24.6184 97.9237 25.2571 99.6384 25.6578C101.378 26.046 103.693 26.2401 106.583 26.2401Z" fill="black" fill-opacity="0.8" shape-rendering="crispEdges"/>
<path d="M168.206 27.8555C167.765 27.9807 167.361 28.0246 166.994 27.987C166.651 27.9494 166.345 27.8305 166.075 27.6301L153.803 17.7874H139.252V27.029C139.252 27.555 138.738 27.8179 137.709 27.8179C136.68 27.8179 136.165 27.555 136.165 27.029V4.82649C136.165 4.30054 136.68 4.03757 137.709 4.03757H154.905C158.996 4.03757 162.07 4.56978 164.128 5.63419C166.21 6.68609 167.251 8.25768 167.251 10.3489V11.476C167.251 13.3293 166.418 14.7819 164.752 15.8338C163.111 16.8732 160.662 17.4993 157.404 17.7122L168.647 26.766C169.235 27.2294 169.088 27.5925 168.206 27.8555ZM139.252 16.2095H154.905C158.114 16.2095 160.453 15.8276 161.923 15.0637C163.417 14.2998 164.164 13.1039 164.164 11.476V10.3489C164.164 8.70849 163.417 7.51258 161.923 6.76123C160.453 5.99735 158.114 5.61541 154.905 5.61541H139.252V16.2095Z" fill="black" fill-opacity="0.8" shape-rendering="crispEdges"/>
</g>
<defs>
<filter id="filter0_d_84_115" x="0" y="0" width="177" height="32" filterUnits="userSpaceOnUse" color-interpolation-filters="sRGB">
<feFlood flood-opacity="0" result="BackgroundImageFix"/>
<feColorMatrix in="SourceAlpha" type="matrix" values="0 0 0 0 0 0 0 0 0 0 0 0 0 0 0 0 0 0 127 0" result="hardAlpha"/>
<feOffset dx="4"/>
<feGaussianBlur stdDeviation="2"/>
<feComposite in2="hardAlpha" operator="out"/>
<feColorMatrix type="matrix" values="0 0 0 0 0 0 0 0 0 0 0 0 0 0 0 0 0 0 0.25 0"/>
<feBlend mode="normal" in2="BackgroundImageFix" result="effect1_dropShadow_84_115"/>
<feBlend mode="normal" in="SourceGraphic" in2="effect1_dropShadow_84_115" result="shape"/>
</filter>
</defs>
</svg>
